<?xml version="1.0" standalone="no"?>
<!DOCTYPE svg PUBLIC "-//W3C//DTD SVG 20010904//EN"
 "http://www.w3.org/TR/2001/REC-SVG-20010904/DTD/svg10.dtd">
<svg version="1.0" xmlns="http://www.w3.org/2000/svg"
 width="200.000000pt" height="200.000000pt" viewBox="0 0 200.000000 200.000000"
 preserveAspectRatio="xMidYMid meet">
<metadata>
Created by potrace 1.16, written by Peter Selinger 2001-2019
</metadata>
<g transform="translate(0.000000,200.000000) scale(0.100000,-0.100000)"
fill="#000000" stroke="none">
<path d="M865 1636 c-310 -71 -529 -359 -512 -671 16 -287 210 -525 483 -595
145 -37 328 -19 451 44 93 47 92 40 17 141 -36 50 -72 98 -79 108 -12 17 -15
17 -37 4 -49 -32 -139 -50 -220 -44 -343 23 -496 434 -258 688 28 29 50 59 50
66 0 7 9 36 20 64 34 84 15 101 -49 44 -32 -29 -40 -33 -50 -21 -9 11 -4 20
26 45 44 37 79 48 102 34 22 -14 25 -76 6 -113 -9 -18 -15 -34 -13 -36 2 -2
26 5 54 15 66 26 150 35 204 22 24 -5 46 -8 48 -6 2 2 -6 13 -17 24 -47 47
-18 131 45 131 57 0 87 -86 44 -125 -26 -23 -25 -51 1 -65 25 -14 20 -19 58
58 17 34 35 62 41 62 22 0 18 -23 -14 -81 l-35 -63 48 -51 c120 -126 152 -306
84 -458 l-27 -60 23 -16 c13 -9 57 -45 98 -80 84 -71 76 -73 123 24 68 137 79
338 28 483 -68 190 -225 343 -425 413 -75 27 -235 34 -318 15z m-185 -206 c44
-44 14 -140 -44 -140 -26 0 -51 24 -41 40 3 5 16 8 29 4 30 -7 50 18 42 51 -7
28 -36 34 -56 10 -13 -16 -40 -20 -40 -6 0 4 9 20 21 35 25 31 61 34 89 6z
m717 -2 c47 -44 18 -138 -42 -138 -24 0 -65 31 -65 49 0 17 25 19 42 3 25 -21
48 -8 48 27 0 32 -33 61 -45 41 -5 -8 -12 -7 -22 1 -13 11 -13 14 3 26 26 19
55 16 81 -9z m93 -238 c0 -11 -6 -20 -14 -20 -18 0 -29 16 -21 30 11 18 35 11
35 -10z m74 -71 c-3 -6 -22 -18 -42 -26 -39 -16 -85 -4 -97 25 -8 22 11 40 27
24 16 -16 60 -15 84 2 16 13 20 13 27 0 4 -8 5 -19 1 -25z m-991 25 c21 -22
-49 -70 -86 -58 -36 11 -49 25 -36 40 7 9 18 10 33 4 15 -5 31 -4 47 5 29 16
34 17 42 9z m-3 -264 c23 -23 25 -36 9 -46 -7 -4 -16 1 -21 10 -12 22 -46 20
-86 -4 -28 -18 -33 -18 -39 -5 -3 9 -4 17 -2 19 68 49 109 56 139 26z m939
-78 c24 -20 33 -34 28 -46 -8 -21 -22 -14 -86 42 -32 28 -42 44 -38 56 6 16 9
16 34 -3 16 -11 43 -33 62 -49z m51 48 c0 -21 -24 -28 -35 -10 -8 14 3 30 21
30 8 0 14 -9 14 -20z m-1054 -85 c-30 -24 -46 -24 -46 -2 0 19 53 48 65 36 7
-7 0 -18 -19 -34z m113 1 c10 -11 1 -21 -46 -50 -64 -40 -69 -42 -76 -22 -4 9
13 27 46 49 60 41 61 42 76 23z m164 -145 c30 -16 74 -32 96 -36 27 -4 41 -12
41 -22 0 -15 -34 -14 -95 3 -18 4 -24 -4 -44 -50 -13 -31 -24 -56 -26 -56 -2
0 -10 3 -18 6 -13 5 -13 10 3 37 33 59 33 81 -1 106 -16 12 -27 26 -24 32 8
12 5 13 68 -20z m-73 -43 c0 -28 -29 -80 -43 -75 -7 2 -10 13 -8 23 2 10 5 37
6 59 1 22 3 45 4 50 3 17 41 -36 41 -57z m306 1 c10 -17 -13 -36 -27 -22 -12
12 -4 33 11 33 5 0 12 -5 16 -11z m259 -45 c19 -33 24 -49 16 -57 -12 -12 -9
-16 -49 50 -21 35 -27 53 -19 56 18 6 22 2 52 -49z m-285 -7 c0 -7 -5 -18 -11
-24 -7 -7 -9 -23 -5 -38 5 -20 12 -26 29 -23 17 2 22 9 21 33 0 17 -4 38 -8
48 -6 11 -4 17 5 17 26 0 40 -16 45 -51 11 -69 -67 -118 -110 -70 -21 24 -25
83 -7 105 16 19 41 21 41 3z m138 -20 c2 -10 -3 -17 -12 -17 -18 0 -29 16 -21
31 9 14 29 6 33 -14z m55 -61 c7 -17 -72 -41 -87 -26 -12 12 1 26 29 33 37 9
53 7 58 -7z m-275 -13 c-2 -10 -10 -18 -18 -18 -8 0 -16 8 -18 18 -2 12 3 17
18 17 15 0 20 -5 18 -17z"/>
<path d="M1105 1519 c-9 -26 16 -55 40 -45 25 9 16 60 -12 64 -15 2 -23 -3
-28 -19z"/>
<path d="M910 1375 c-110 -31 -190 -99 -238 -204 -22 -47 -27 -70 -27 -146 0
-82 3 -96 33 -157 40 -82 111 -149 190 -178 47 -18 72 -21 147 -18 76 4 99 9
145 34 30 16 58 30 61 32 4 2 63 -73 132 -166 69 -93 133 -172 142 -176 32
-12 75 -6 95 14 19 19 26 63 14 94 -3 8 -74 70 -157 137 -84 67 -158 128 -165
134 -11 10 -8 21 16 59 40 62 56 132 50 220 -14 218 -232 378 -438 321z m213
-43 c69 -31 140 -102 172 -174 35 -77 38 -167 11 -248 -27 -77 -119 -169 -196
-196 -218 -74 -440 82 -440 311 0 235 243 400 453 307z"/>
<path d="M925 1307 c-67 -23 -101 -44 -143 -92 -162 -184 -35 -474 207 -475
83 0 128 14 187 59 136 103 146 309 21 434 -71 71 -186 102 -272 74z m63 -43
c-2 -10 -21 -22 -46 -29 -60 -18 -105 -56 -127 -107 -11 -23 -25 -47 -32 -51
-20 -12 -15 -24 10 -23 13 1 22 -5 22 -14 0 -10 -8 -14 -22 -13 -20 2 -22 -2
-20 -34 3 -50 -19 -53 -27 -3 -18 114 44 231 148 276 46 20 98 18 94 -2z m87
-23 c6 8 10 8 16 -2 4 -7 3 -19 -2 -25 -7 -8 -3 -23 11 -46 24 -40 26 -75 3
-100 -21 -24 -58 -23 -83 2 -26 26 -25 60 1 94 13 16 18 33 14 46 -9 27 3 44
20 30 10 -8 15 -8 20 1z m-116 -60 c21 -13 3 -32 -25 -25 -33 9 -30 -7 6 -28
48 -27 35 -78 -21 -78 -29 0 -57 24 -40 34 6 4 22 4 36 0 15 -4 25 -2 25 5 0
6 -11 13 -25 17 -55 14 -53 84 3 84 15 0 33 -4 41 -9z m197 -157 c-4 -14 1
-35 14 -56 12 -21 20 -51 20 -80 0 -39 -4 -50 -24 -64 -31 -19 -70 -15 -74 9
-3 13 4 17 30 18 27 1 29 3 8 6 -59 11 -77 63 -41 117 14 21 17 35 10 47 -11
21 2 32 25 23 9 -3 16 -1 16 6 0 6 5 8 11 4 6 -3 8 -17 5 -30z m94 2 c0 -44
-17 -89 -30 -81 -6 4 -7 23 -4 44 5 33 3 39 -16 44 -30 8 -16 27 21 27 26 0
29 -3 29 -34z m-365 -39 c24 -18 11 -41 -15 -27 -12 6 -21 7 -25 0 -3 -5 7
-16 23 -24 38 -20 47 -44 26 -67 -20 -23 -53 -24 -80 -5 -26 20 -6 43 24 27
13 -7 23 -7 27 -1 3 5 -8 16 -25 25 -34 18 -41 57 -12 74 23 14 35 13 57 -2z
m134 4 c23 -15 6 -39 -23 -34 -35 7 -33 -1 9 -26 38 -22 44 -41 19 -65 -28
-29 -93 -14 -81 18 5 13 11 15 26 6 13 -6 22 -7 26 0 3 5 -8 16 -25 25 -33 17
-39 45 -14 69 17 18 42 20 63 7z m-83 -167 c28 -12 54 -14 96 -10 34 4 58 3
58 -2 0 -15 -27 -22 -84 -22 -63 0 -116 16 -116 36 0 17 -1 17 46 -2z"/>
<path d="M1046 1144 c-17 -43 9 -79 35 -48 9 11 9 21 1 39 -13 29 -27 32 -36
9z"/>
<path d="M1111 947 c-15 -29 -8 -47 19 -47 26 0 32 25 12 50 l-18 22 -13 -25z"/>
</g>
</svg>
