<svg width="32" height="32" viewBox="0 0 32 32" fill="none" xmlns="http://www.w3.org/2000/svg">
<g id="Logo" clip-path="url(#clip0_37167_19459)">
<g id="&#229;&#155;&#190;&#229;&#177;&#130; 2">
<g id="&#229;&#155;&#190;&#229;&#177;&#130; 1">
<path id="Vector" d="M19.3813 29.0048L18.8535 29.1262L19.4063 31.5467L19.9341 31.4253L19.3813 29.0048Z" fill="#EEF0F3"/>
<path id="Vector_2" d="M17.6798 29.321L17.7622 30.2222L17.496 30.2468L16.8353 29.3982L16.1992 29.4575L16.9791 30.3519C16.8396 30.4009 16.7233 30.5001 16.6526 30.6303C16.5833 30.7851 16.5597 30.9567 16.5847 31.1245C16.5932 31.2484 16.6229 31.3698 16.6727 31.4834C16.7154 31.575 16.7829 31.6525 16.8676 31.7071C16.9611 31.7666 17.0665 31.8048 17.1762 31.8189C17.3195 31.8348 17.4641 31.8348 17.6074 31.8189L18.4451 31.7417L18.2223 29.2685L17.6798 29.321ZM17.6508 31.3862C17.5735 31.3937 17.4957 31.3959 17.418 31.3929C17.3627 31.3917 17.3083 31.3784 17.2587 31.3538C17.2173 31.3311 17.1842 31.2959 17.164 31.2531C17.1388 31.197 17.1241 31.1368 17.1205 31.0753C17.1128 31.0104 17.1158 30.9447 17.1295 30.8808C17.1407 30.8322 17.1668 30.7884 17.2041 30.7556C17.2474 30.7196 17.2986 30.6944 17.3534 30.6818C17.4287 30.6629 17.5055 30.6506 17.5829 30.6449L17.799 30.6247L17.867 31.366L17.6508 31.3862Z" fill="#EEF0F3"/>
<path id="Vector_3" d="M14.5806 30.949L14.2664 30.6437L13.9846 31.0384L13.8219 30.5811L13.4364 30.7868L13.7194 31.1815L13.2393 31.1927L13.315 31.6265L13.7718 31.4778L13.6392 31.9396L14.0692 32L14.0681 31.5192L14.4658 31.7887L14.6586 31.3929L14.1996 31.2486L14.5806 30.949Z" fill="#EEF0F3"/>
<path id="Vector_4" d="M11.5092 28.6099C11.3857 28.5257 11.2535 28.4553 11.1149 28.3997C10.9774 28.345 10.8337 28.3074 10.6871 28.2879C10.5672 28.2687 10.4446 28.2748 10.3272 28.3058C10.2185 28.3375 10.1196 28.3964 10.0398 28.4769C9.94785 28.5733 9.87624 28.6874 9.82924 28.8123L9.21094 30.3519L9.71003 30.5543L10.306 29.0706C10.3291 29.0115 10.3594 28.9555 10.3963 28.904C10.4284 28.8597 10.4709 28.824 10.5199 28.8C10.5751 28.7766 10.6352 28.7674 10.6949 28.7732C10.7791 28.7808 10.8616 28.8023 10.9388 28.8369C11.0155 28.8652 11.0876 28.9047 11.1527 28.9543C11.2007 28.9897 11.239 29.0366 11.2641 29.0907C11.285 29.142 11.2916 29.1981 11.2831 29.2528C11.2735 29.3186 11.2555 29.3829 11.2296 29.444L10.6336 30.9278L11.1405 31.1279L11.7599 29.5883C11.816 29.4598 11.8467 29.3215 11.8501 29.1813C11.8507 29.0691 11.8207 28.9589 11.7632 28.8626C11.6972 28.7614 11.6106 28.6753 11.5092 28.6099Z" fill="#EEF0F3"/>
<path id="Vector_5" d="M8.96285 28.4254C8.91147 28.3529 8.85368 28.2852 8.79017 28.2231C8.73224 28.166 8.68879 28.118 8.65537 28.0799C8.62771 28.0489 8.6048 28.0138 8.58741 27.976C8.57469 27.9492 8.57079 27.919 8.57627 27.8899C8.58341 27.8577 8.59623 27.827 8.61415 27.7993C8.62711 27.7716 8.6478 27.7483 8.67371 27.7323C8.69962 27.7162 8.72963 27.708 8.76009 27.7087C8.84218 27.7234 8.92011 27.7558 8.98847 27.8038C9.15383 27.9101 9.30378 28.0387 9.43409 28.1862L9.6569 27.8183C9.5864 27.751 9.512 27.6879 9.43409 27.6294C9.35091 27.5653 9.26179 27.5038 9.16672 27.4449C9.07232 27.3852 8.97186 27.3357 8.86704 27.2973C8.78297 27.2663 8.69356 27.2526 8.60412 27.257C8.52214 27.2626 8.44302 27.2896 8.37463 27.3353C8.29494 27.3931 8.22816 27.467 8.17856 27.5522C8.13788 27.6166 8.10497 27.6857 8.08052 27.7579C8.06076 27.8162 8.05616 27.8785 8.06715 27.9391C8.08129 28.0053 8.10857 28.0681 8.14736 28.1236C8.19889 28.1994 8.25745 28.2701 8.32227 28.3349C8.37686 28.3908 8.42031 28.4377 8.45261 28.4746C8.47929 28.5033 8.50282 28.5348 8.5228 28.5686C8.53615 28.5891 8.54241 28.6134 8.54062 28.6379C8.53605 28.6632 8.52618 28.6872 8.51166 28.7083C8.50031 28.7327 8.48263 28.7535 8.46048 28.7687C8.43833 28.7838 8.41252 28.7927 8.38577 28.7944C8.3051 28.7821 8.22864 28.7502 8.16296 28.7016C8.12428 28.6782 8.08708 28.6525 8.05155 28.6245C8.01479 28.5965 7.97914 28.5674 7.94015 28.5384C7.90116 28.5093 7.87553 28.4802 7.84768 28.4534C7.81983 28.4266 7.79644 28.4031 7.7775 28.383L7.55469 28.7094C7.60419 28.7678 7.65984 28.8207 7.72068 28.8671C7.80036 28.9305 7.88368 28.9891 7.97023 29.0426C8.07122 29.1079 8.18018 29.1597 8.29442 29.1969C8.37912 29.2247 8.46856 29.235 8.55733 29.2271C8.63315 29.219 8.70526 29.19 8.76566 29.1433C8.83382 29.0931 8.89201 29.0305 8.93723 28.9588C8.97322 28.8989 9.00237 28.8351 9.02412 28.7687C9.04271 28.714 9.04693 28.6555 9.03638 28.5987C9.02349 28.5367 8.9985 28.4778 8.96285 28.4254Z" fill="#EEF0F3"/>
<path id="Vector_6" d="M7.84413 26.7818C7.83182 26.6684 7.79036 26.5602 7.72381 26.4677C7.64532 26.3593 7.55363 26.2613 7.45087 26.1758C7.38966 26.1236 7.3257 26.0747 7.25925 26.0294C7.19464 25.9858 7.13448 25.9477 7.07766 25.9176C7.02715 25.8882 6.97466 25.8624 6.92058 25.8404C6.88161 25.8249 6.84134 25.813 6.80026 25.8046L6.53735 26.1155C6.57951 26.1253 6.62085 26.1384 6.66101 26.1546C6.71214 26.175 6.76199 26.1986 6.81029 26.225C6.86153 26.253 6.91278 26.2832 6.96514 26.3167C7.01683 26.3503 7.06598 26.3877 7.1122 26.4285C7.22142 26.5076 7.30199 26.6203 7.34169 26.7494C7.35106 26.8064 7.34794 26.8647 7.33254 26.9203C7.31715 26.9759 7.28986 27.0275 7.25257 27.0714L6.24992 26.3279C6.22875 26.3458 6.20202 26.3715 6.16748 26.4062C6.13295 26.4408 6.09841 26.48 6.06387 26.518C5.98936 26.605 5.92437 26.6999 5.87003 26.8009C5.8189 26.89 5.79199 26.991 5.79199 27.0938C5.79199 27.1966 5.8189 27.2976 5.87003 27.3867C5.94152 27.5067 6.03398 27.6128 6.14297 27.6998C6.24472 27.7879 6.35699 27.8631 6.47719 27.9234C6.58065 27.9756 6.69573 28.0002 6.8114 27.995C6.93208 27.9862 7.04876 27.9478 7.15119 27.8832C7.4218 27.6953 7.63785 27.4387 7.77728 27.1396C7.82926 27.0279 7.85225 26.9049 7.84413 26.7818ZM6.87045 27.4751C6.82699 27.5054 6.77697 27.525 6.72451 27.5321C6.67257 27.5358 6.62053 27.5266 6.573 27.5053C6.51026 27.4774 6.45234 27.4396 6.40143 27.3934C6.35213 27.3548 6.31119 27.3065 6.28111 27.2514C6.25965 27.2109 6.24964 27.1653 6.25215 27.1195C6.25611 27.0753 6.26981 27.0325 6.29225 26.9943C6.31718 26.9512 6.34589 26.9104 6.37804 26.8724L7.01862 27.342C6.97558 27.393 6.92571 27.4378 6.87045 27.4751Z" fill="#EEF0F3"/>
<path id="Vector_7" d="M5.06738 25.0786L4.75879 25.3546L5.48655 26.1743L5.79515 25.8984L5.06738 25.0786Z" fill="#EEF0F3"/>
<path id="Vector_8" d="M4.88463 23.3112C4.79595 23.168 4.68924 23.0369 4.56713 22.921C4.45928 22.817 4.32663 22.7426 4.18189 22.7048C4.03715 22.667 3.88517 22.6672 3.7405 22.7052C3.54477 22.7568 3.3591 22.8411 3.19127 22.9546C3.00935 23.0651 2.84676 23.2048 2.71 23.3683C2.61314 23.4864 2.54863 23.6278 2.52284 23.7786C2.50433 23.9211 2.52156 24.066 2.57298 24.2001C2.63138 24.3567 2.70606 24.5066 2.79579 24.6474L3.25255 25.3663L5.33805 24.0313L4.88463 23.3112ZM3.34724 24.653L3.19796 24.4182C3.1436 24.3353 3.09981 24.2459 3.06761 24.1521C3.03983 24.0742 3.03557 23.9898 3.05536 23.9094C3.07961 23.8211 3.12514 23.7401 3.18793 23.6735C3.27866 23.5778 3.38169 23.4947 3.4943 23.4264C3.59813 23.3564 3.71044 23.3001 3.82851 23.2587C3.91484 23.2293 4.00703 23.2216 4.097 23.2363C4.18047 23.2512 4.25785 23.2901 4.31981 23.3481C4.39393 23.4162 4.45807 23.4945 4.51031 23.5807L4.65959 23.8155L3.34724 24.653Z" fill="#EEF0F3"/>
<path id="Vector_9" d="M2.68039 22.3743C2.84381 22.3586 3.00367 22.3167 3.15386 22.2502C3.3073 22.192 3.45057 22.1097 3.57832 22.0064C3.67055 21.9293 3.74248 21.8306 3.78776 21.7191C3.82829 21.6122 3.84095 21.4968 3.82452 21.3836C3.80395 21.2508 3.76651 21.1212 3.71312 20.9979C3.6829 20.9216 3.64869 20.847 3.61063 20.7743C3.57386 20.7061 3.53821 20.6446 3.49922 20.5898C3.46829 20.5403 3.43365 20.4932 3.39561 20.4489C3.36816 20.4165 3.33797 20.3866 3.30538 20.3595L2.92883 20.5138C2.962 20.5419 2.99258 20.5729 3.02018 20.6066C3.05694 20.6475 3.09047 20.6912 3.12044 20.7374C3.15275 20.7855 3.18506 20.8369 3.21625 20.8917C3.24632 20.9444 3.27311 20.9989 3.29646 21.0549C3.35627 21.176 3.37542 21.3133 3.35105 21.4463C3.33363 21.5007 3.30471 21.5508 3.26626 21.5931C3.22781 21.6353 3.18074 21.6688 3.12824 21.6911L2.5857 20.573C2.56008 20.5786 2.52331 20.5887 2.47429 20.6032C2.42528 20.6177 2.37849 20.6368 2.32835 20.658C2.22242 20.7005 2.12123 20.7541 2.02645 20.8179C1.94272 20.8752 1.87395 20.9519 1.82592 21.0415C1.77895 21.1349 1.75633 21.2388 1.76019 21.3434C1.76793 21.4832 1.80116 21.6204 1.85822 21.7481C1.90804 21.8748 1.97354 21.9946 2.05318 22.1048C2.12076 22.1982 2.21084 22.2728 2.31498 22.3217C2.43034 22.3702 2.55612 22.3883 2.68039 22.3743ZM2.32947 21.7739C2.28671 21.7208 2.25285 21.6612 2.2292 21.5972C2.20305 21.5399 2.18865 21.4779 2.18687 21.415C2.18698 21.3689 2.19929 21.3238 2.22252 21.2841C2.24615 21.2467 2.2782 21.2153 2.3161 21.1925C2.35814 21.1657 2.40251 21.1429 2.44867 21.1242L2.80294 21.8331C2.74056 21.8574 2.67546 21.8739 2.60909 21.8823C2.55643 21.8882 2.50312 21.8821 2.45313 21.8644C2.40514 21.8449 2.36268 21.8138 2.32947 21.7739Z" fill="#EEF0F3"/>
<path id="Vector_10" d="M1.74817 20.0363L3.22095 19.6517L3.0906 19.1497L1.61671 19.5343L1.52202 19.1676L1.1321 19.2693L1.22791 19.6372C1.15987 19.6555 1.09062 19.6689 1.02069 19.6774C0.97478 19.6846 0.927821 19.6808 0.883666 19.6662C0.846495 19.6524 0.815349 19.6259 0.795656 19.5913C0.769543 19.5448 0.750399 19.4947 0.73884 19.4426C0.73198 19.4172 0.726403 19.3915 0.722129 19.3655C0.722129 19.3398 0.715445 19.3152 0.713217 19.2906L0.354492 19.3845C0.354492 19.4203 0.364519 19.456 0.370089 19.4963C0.375705 19.534 0.383517 19.5713 0.393484 19.6081C0.42046 19.7115 0.457785 19.8119 0.504889 19.9078C0.542495 19.9865 0.598716 20.0548 0.668655 20.1068C0.748331 20.1593 0.840765 20.1891 0.936027 20.1929C1.07222 20.1985 1.20842 20.1819 1.33931 20.1437H1.35714L1.43178 20.431L1.82058 20.3282L1.74817 20.0363Z" fill="#EEF0F3"/>
<path id="Vector_11" d="M0.671773 16.4048L0.758669 15.9307L1.1018 16.2728L1.36471 15.9229L0.941373 15.6903L1.37251 15.4723L1.12185 15.1145L0.767581 15.4443L0.697396 14.9669L0.277399 15.0955L0.480156 15.5326L0.00779836 15.4566L0 15.8927L0.4757 15.8323L0.257346 16.2616L0.671773 16.4048Z" fill="#EEF0F3"/>
<path id="Vector_12" d="M0.808566 12.6994C0.887539 12.8362 0.998882 12.9514 1.13275 13.0348C1.30673 13.1399 1.49682 13.2155 1.69535 13.2584C1.90292 13.3165 2.11852 13.3403 2.3337 13.3288C2.4886 13.3196 2.63855 13.2707 2.7693 13.1868C2.88867 13.1027 2.98488 12.9896 3.04892 12.8581C3.1242 12.7101 3.18143 12.5536 3.21937 12.3919C3.24666 12.2818 3.26418 12.1696 3.27173 12.0564C3.27903 11.9636 3.27641 11.8703 3.26393 11.778L2.81831 11.6662C2.83654 11.8627 2.82109 12.0609 2.77264 12.2521C2.75134 12.3456 2.71683 12.4356 2.67015 12.5193C2.6303 12.5889 2.57105 12.6453 2.4997 12.6815C2.41589 12.7255 2.32245 12.7478 2.22787 12.7463C2.0946 12.7416 1.96229 12.7217 1.83349 12.6871C1.70866 12.6582 1.58755 12.6151 1.47254 12.5585C1.38953 12.5175 1.31679 12.4583 1.25976 12.3852C1.21139 12.3201 1.18242 12.2425 1.1762 12.1616C1.17075 12.0637 1.18091 11.9655 1.20628 11.8708C1.22868 11.7751 1.25963 11.6815 1.29875 11.5913C1.33316 11.5138 1.37338 11.4391 1.41907 11.3677L0.966761 11.2559C0.862618 11.4228 0.78729 11.6061 0.743951 11.7982C0.70215 11.9602 0.683397 12.1273 0.688249 12.2946C0.695194 12.4373 0.736477 12.5762 0.808566 12.6994Z" fill="#EEF0F3"/>
<path id="Vector_13" d="M3.72024 10.8288L2.83456 10.4509L3.18549 9.62126L2.75547 9.43789L2.40454 10.2675L1.87648 10.0417L2.25637 9.14606L1.82301 8.96158L1.23145 10.357L3.50745 11.3297L3.72024 10.8288Z" fill="#EEF0F3"/>
<path id="Vector_14" d="M2.7853 8.47744C2.91451 8.63577 3.06975 8.77077 3.24429 8.8766C3.42153 8.99898 3.61709 9.09221 3.8236 9.15277C3.97294 9.19536 4.13077 9.19806 4.28147 9.1606C4.42077 9.12077 4.54792 9.04658 4.65134 8.9448C4.77324 8.82307 4.88123 8.68806 4.9733 8.54229C5.05435 8.4161 5.12621 8.28419 5.18831 8.1476C5.24012 8.03733 5.2826 7.92288 5.31531 7.80546L4.17675 7.06751L3.67654 7.85018L4.05643 8.09728L4.28481 7.74173L4.73043 8.03355C4.71653 8.07239 4.699 8.10983 4.67807 8.14536C4.65691 8.18338 4.6324 8.22251 4.60566 8.265C4.55095 8.35363 4.48463 8.43449 4.40847 8.50539C4.3465 8.56204 4.26876 8.59832 4.18566 8.60937C4.09323 8.61865 3.99994 8.60522 3.91383 8.57024C3.7912 8.5186 3.67432 8.45414 3.56514 8.37793C3.45289 8.30906 3.34993 8.22602 3.25877 8.13083C3.19467 8.06242 3.14704 7.98019 3.11952 7.89044C3.09563 7.80791 3.09563 7.72027 3.11952 7.63775C3.15139 7.53823 3.19715 7.44374 3.25543 7.3571C3.31495 7.26611 3.38124 7.17977 3.45373 7.09882C3.52103 7.02065 3.59564 6.94914 3.67654 6.88526L3.27771 6.62698C3.24051 6.65562 3.20551 6.68701 3.17299 6.7209C3.13511 6.76004 3.09835 6.80141 3.06158 6.84613C3.02482 6.89085 2.98583 6.94005 2.95018 6.99037C2.91453 7.04068 2.87665 7.09099 2.84435 7.14131C2.74954 7.28757 2.67461 7.44587 2.62153 7.61203C2.57534 7.75642 2.56501 7.90996 2.59146 8.05927C2.6211 8.21245 2.68765 8.35601 2.7853 8.47744Z" fill="#EEF0F3"/>
<path id="Vector_15" d="M4.9472 5.24612L5.34492 4.97442L5.3438 5.46079L5.77605 5.40153L5.64348 4.9364L6.10136 5.0907L6.17934 4.66023L5.69584 4.63787L5.98438 4.25324L5.59781 4.04416L5.43181 4.49587L5.1533 4.10454L4.83802 4.40642L5.21457 4.70272L4.75781 4.84919L4.9472 5.24612Z" fill="#EEF0F3"/>
<path id="Vector_16" d="M7.72628 2.4389L7.27148 2.73233L8.60761 4.8183L9.06241 4.52487L7.72628 2.4389Z" fill="#EEF0F3"/>
<path id="Vector_17" d="M10.1133 3.9234L9.73117 3.10383L9.97292 2.99202L10.882 3.56561L11.4602 3.29391L10.423 2.71809C10.537 2.62513 10.6131 2.49347 10.6369 2.348C10.6497 2.17853 10.6137 2.00895 10.5333 1.85939C10.484 1.74594 10.4149 1.6422 10.3294 1.55303C10.2584 1.48036 10.1685 1.42921 10.0698 1.40544C9.96228 1.38202 9.85098 1.38202 9.74342 1.40544C9.60253 1.43795 9.46575 1.48633 9.33568 1.54968L8.57812 1.90076L9.62756 4.15038L10.1133 3.9234ZM9.24656 2.064L9.44374 1.9712C9.5136 1.93757 9.58584 1.90917 9.65987 1.88622C9.71214 1.86844 9.76765 1.86233 9.82252 1.86833C9.86932 1.87549 9.91263 1.89742 9.94618 1.93095C9.98879 1.97512 10.0231 2.02663 10.0476 2.08301C10.0767 2.14165 10.0959 2.20475 10.1044 2.26973C10.1102 2.31919 10.1005 2.36924 10.0765 2.41285C10.049 2.46076 10.0109 2.50169 9.96512 2.53249C9.90041 2.57544 9.83221 2.61284 9.76125 2.6443L9.56517 2.7371L9.24656 2.064Z" fill="#EEF0F3"/>
<path id="Vector_18" d="M12.4806 1.33837L12.8783 1.51839L13.012 1.05214L13.3184 1.4267L13.6114 1.10245L13.2126 0.827401L13.6604 0.654095L13.4432 0.271706L13.0644 0.566884L13.0332 0.0872192L12.6076 0.175549L12.7703 0.627261L12.3057 0.508743L12.2578 0.947038L12.738 0.926912L12.4806 1.33837Z" fill="#EEF0F3"/>
<path id="Vector_19" d="M15.8409 2.34801C15.9354 2.42136 16.0444 2.47359 16.1606 2.50119C16.3047 2.53732 16.4523 2.5572 16.6007 2.56045C16.75 2.56794 16.8996 2.55705 17.0463 2.52802C17.1664 2.50586 17.2803 2.45821 17.3805 2.38826C17.4715 2.32014 17.543 2.22911 17.5877 2.12439C17.6415 2.0017 17.6699 1.86933 17.6713 1.73529L17.7314 0.0760307L17.1934 0.055905L17.1354 1.65479C17.1342 1.71797 17.1248 1.78073 17.1076 1.84151C17.0929 1.89433 17.0648 1.94245 17.0262 1.98127C16.9825 2.02231 16.9293 2.05188 16.8714 2.06737C16.7896 2.08825 16.7049 2.0958 16.6207 2.08973C16.5388 2.08882 16.4575 2.0764 16.379 2.05283C16.3223 2.03541 16.2709 2.00387 16.2297 1.96115C16.1923 1.92041 16.1669 1.87011 16.1562 1.81579C16.1436 1.75063 16.1387 1.6842 16.1417 1.61789L16.1996 0.0201258L15.6582 0L15.5969 1.65926C15.588 1.79933 15.6062 1.9398 15.6504 2.07296C15.6864 2.18103 15.7525 2.27649 15.8409 2.34801Z" fill="#EEF0F3"/>
<path id="Vector_20" d="M18.7502 2.79524C18.8599 2.81949 18.972 2.83149 19.0844 2.83102C19.1743 2.83214 19.2634 2.81463 19.3462 2.77959C19.4214 2.74669 19.4864 2.69418 19.5345 2.62753C19.5912 2.54633 19.6292 2.45354 19.6459 2.35583C19.6623 2.28245 19.6701 2.20741 19.6693 2.13221C19.6678 2.07085 19.651 2.01086 19.6203 1.95778C19.5843 1.90064 19.5373 1.85123 19.4821 1.81243C19.4077 1.75826 19.3282 1.71145 19.2448 1.67267C19.1746 1.63913 19.1178 1.61006 19.0755 1.58658C19.0411 1.56817 19.0083 1.54685 18.9775 1.52284C18.9564 1.50532 18.9425 1.48065 18.9385 1.45352C18.9331 1.42809 18.9331 1.40181 18.9385 1.37637C18.9409 1.34972 18.9505 1.32423 18.9662 1.30258C18.9819 1.28093 19.0031 1.26393 19.0276 1.25338C19.1081 1.23593 19.1917 1.23939 19.2705 1.26344C19.3128 1.27239 19.3562 1.28357 19.4008 1.29699C19.4442 1.31152 19.4877 1.32606 19.5289 1.34283C19.5701 1.3596 19.6091 1.37414 19.6403 1.39091L19.7306 1.43228L19.8308 1.04765C19.7647 1.01019 19.6949 0.979834 19.6225 0.957086C19.5259 0.924275 19.4273 0.897759 19.3273 0.877701C19.2103 0.851555 19.0905 0.840285 18.9708 0.844158C18.8817 0.846688 18.7941 0.867623 18.7134 0.905653C18.6451 0.939343 18.5873 0.991159 18.5463 1.05548C18.503 1.12623 18.4728 1.20427 18.4572 1.28581C18.4417 1.35438 18.4346 1.42459 18.436 1.49489C18.4374 1.55243 18.4535 1.60865 18.4828 1.65813C18.517 1.71207 18.5617 1.75848 18.6143 1.79454C18.6874 1.84515 18.7649 1.88894 18.846 1.92536C18.9184 1.96002 18.9775 1.98909 19.0209 2.01481C19.0571 2.03444 19.0904 2.05889 19.1201 2.08748C19.1417 2.10841 19.1558 2.13593 19.1602 2.16575C19.166 2.19791 19.166 2.23087 19.1602 2.26303C19.1572 2.29417 19.145 2.3237 19.1251 2.34782C19.1053 2.37193 19.0787 2.38952 19.0488 2.39832C18.9665 2.41292 18.8821 2.4091 18.8014 2.38713C18.7075 2.36695 18.6152 2.34005 18.5252 2.30663C18.4309 2.27164 18.3393 2.22979 18.2511 2.1814L18.1631 2.60516C18.2511 2.64481 18.3415 2.6788 18.4338 2.70691C18.5375 2.74224 18.6432 2.77173 18.7502 2.79524Z" fill="#EEF0F3"/>
<path id="Vector_21" d="M20.4462 3.21453C20.5566 3.28972 20.676 3.35058 20.8016 3.39567C20.8771 3.42378 20.9541 3.44767 21.0322 3.46722C21.1069 3.48623 21.1771 3.50188 21.2417 3.51307C21.2987 3.52338 21.3564 3.52936 21.4143 3.53096C21.4564 3.53378 21.4987 3.53153 21.5402 3.52425L21.6817 3.14186C21.6387 3.14559 21.5955 3.14559 21.5525 3.14186C21.4981 3.14167 21.4438 3.13794 21.3898 3.13068C21.3319 3.12173 21.2729 3.11055 21.2127 3.09713C21.1533 3.08385 21.0949 3.06667 21.0378 3.0457C20.9083 3.00812 20.7942 2.92972 20.7125 2.82208C20.6843 2.77135 20.6674 2.71504 20.6632 2.65709C20.659 2.59914 20.6674 2.54097 20.688 2.48665L21.8789 2.84556C21.8923 2.82208 21.909 2.78854 21.929 2.74381C21.9491 2.69909 21.9691 2.65101 21.9881 2.59958C22.0285 2.49117 22.0573 2.37871 22.0739 2.26415C22.0892 2.16475 22.0804 2.06311 22.0482 1.96785C22.0117 1.87011 21.9507 1.78346 21.8711 1.71628C21.7639 1.62697 21.6411 1.55835 21.509 1.5139C21.382 1.46564 21.2496 1.43334 21.1147 1.41775C21.0011 1.4047 20.8861 1.42086 20.7805 1.46471C20.6697 1.51446 20.5731 1.59135 20.4997 1.68833C20.4034 1.82043 20.3282 1.9668 20.2769 2.12215C20.2146 2.27508 20.177 2.437 20.1655 2.60181C20.1579 2.72287 20.1805 2.84392 20.2312 2.95402C20.2795 3.05786 20.3536 3.14755 20.4462 3.21453ZM20.9063 1.97568C20.9374 1.93256 20.9778 1.89702 21.0244 1.8717C21.0714 1.8497 21.123 1.83935 21.1748 1.84151C21.2429 1.84605 21.3099 1.86152 21.3731 1.88735C21.4326 1.90667 21.4875 1.93785 21.5347 1.97903C21.5677 2.0095 21.5922 2.04802 21.606 2.09084C21.6189 2.13439 21.6211 2.1804 21.6126 2.22502C21.6031 2.27409 21.5897 2.32233 21.5725 2.36925L20.8128 2.14563C20.8365 2.08517 20.868 2.02804 20.9063 1.97568Z" fill="#EEF0F3"/>
<path id="Vector_22" d="M22.6518 2.73033L22.4541 3.09464L23.4149 3.61972L23.6125 3.25542L22.6518 2.73033Z" fill="#EEF0F3"/>
<path id="Vector_23" d="M24.1831 5.22152C24.3138 5.32517 24.4572 5.41159 24.6097 5.47869C24.7434 5.5366 24.8889 5.56189 25.0342 5.55248C25.1864 5.53883 25.3328 5.48692 25.4598 5.40154C25.6268 5.28649 25.7733 5.14398 25.8931 4.98001C26.0278 4.81477 26.1346 4.62858 26.2095 4.42879C26.2609 4.2856 26.274 4.13139 26.2474 3.98155C26.2169 3.84094 26.1518 3.71024 26.058 3.6014C25.9496 3.47732 25.8286 3.36491 25.6971 3.26597L25.0286 2.74493L23.5068 4.69602L24.1831 5.22152ZM25.1746 3.43257L25.3974 3.60363C25.4764 3.66326 25.5478 3.73235 25.6102 3.80936C25.6617 3.87359 25.6941 3.95109 25.7037 4.03298C25.7104 4.12494 25.6944 4.21712 25.657 4.30133C25.6041 4.42195 25.5351 4.53479 25.452 4.63676C25.3774 4.73882 25.2898 4.83055 25.1913 4.90957C25.1194 4.96561 25.0355 5.00391 24.9462 5.02138C24.864 5.03345 24.7801 5.02302 24.7033 4.9912C24.6109 4.95129 24.5244 4.89901 24.446 4.83578L24.2232 4.66583L25.1746 3.43257Z" fill="#EEF0F3"/>
<path id="Vector_24" d="M25.8517 6.00421C25.7901 6.10857 25.7546 6.22634 25.7481 6.34746C25.7465 6.46126 25.7737 6.57362 25.8272 6.67395C25.8903 6.7919 25.9682 6.90125 26.0589 6.99932C26.1146 7.06044 26.1715 7.11746 26.2294 7.17039C26.2873 7.22182 26.3408 7.26766 26.3943 7.30679C26.4403 7.34307 26.4891 7.37559 26.5402 7.40407C26.5755 7.42532 26.6128 7.44293 26.6516 7.45662L26.9524 7.18268C26.9121 7.16738 26.873 7.14906 26.8354 7.1279C26.7876 7.10102 26.7414 7.07114 26.6973 7.03845C26.6494 7.00379 26.6026 6.96689 26.5547 6.92664C26.5079 6.88732 26.464 6.84472 26.4232 6.79918C26.3258 6.70637 26.2609 6.58437 26.2383 6.45145C26.2379 6.39437 26.2497 6.33787 26.273 6.28578C26.2962 6.2337 26.3304 6.18724 26.3731 6.14956L27.2643 7.01832C27.2961 6.99821 27.3266 6.97618 27.3557 6.95236C27.3947 6.92217 27.4337 6.88862 27.4749 6.85173C27.5597 6.77471 27.6366 6.6893 27.7044 6.5968C27.7627 6.51569 27.8009 6.42178 27.8158 6.32287C27.8285 6.21889 27.8143 6.11339 27.7746 6.01651C27.7222 5.8882 27.6466 5.77069 27.5518 5.6699C27.4617 5.56784 27.3592 5.47767 27.2465 5.40155C27.1513 5.33736 27.0412 5.29886 26.9268 5.28974C26.8055 5.28346 26.6846 5.30727 26.5747 5.35906C26.2821 5.50997 26.0343 5.73556 25.8562 6.01315L25.8517 6.00421ZM26.8054 5.78841C26.8523 5.7643 26.9042 5.75166 26.9569 5.75152C27.0086 5.75357 27.059 5.76815 27.1039 5.79401C27.1623 5.82931 27.2146 5.87387 27.2588 5.92594C27.3025 5.97095 27.3369 6.02414 27.3601 6.08248C27.3757 6.12579 27.3796 6.17247 27.3713 6.21776C27.3616 6.26111 27.3422 6.30165 27.3145 6.33628C27.2845 6.37653 27.2509 6.41396 27.2142 6.44809L26.6394 5.90246C26.6898 5.85772 26.7455 5.81941 26.8054 5.78841Z" fill="#EEF0F3"/>
<path id="Vector_25" d="M26.9893 8.09393L27.2823 8.52104L28.5356 7.65451L28.7506 7.96758L29.0848 7.73725L28.8709 7.4253C28.9284 7.38387 28.9887 7.34651 29.0514 7.31349C29.0928 7.29182 29.1384 7.2796 29.1851 7.27771C29.2257 7.27791 29.265 7.29212 29.2965 7.31797C29.3366 7.3526 29.3715 7.3929 29.4001 7.4376C29.4157 7.45996 29.429 7.48233 29.4424 7.50469C29.4558 7.52705 29.4658 7.55053 29.4758 7.57289L29.7811 7.36157C29.7644 7.32915 29.7476 7.29672 29.7298 7.2643C29.712 7.23187 29.6919 7.20057 29.6708 7.16926C29.6083 7.08369 29.5378 7.00432 29.4602 6.93222C29.3972 6.86836 29.3184 6.82244 29.2318 6.79917C29.1391 6.77721 29.0423 6.78029 28.9511 6.80811C28.8211 6.84974 28.6988 6.91243 28.589 6.99372L28.5746 7.00378L28.4086 6.75333L28.0743 6.98254L28.2426 7.2274L26.9893 8.09393Z" fill="#EEF0F3"/>
<path id="Vector_26" d="M30.1409 11.3934L30.4974 11.645L30.7202 11.2134L30.9475 11.6394L31.2984 11.3756L30.9597 11.0334L31.431 10.9451L31.2906 10.5314L30.8639 10.7494L30.9241 10.2709L30.4852 10.2776L30.5643 10.7528L30.1253 10.5482L29.9961 10.9663L30.4729 11.0412L30.1409 11.3934Z" fill="#EEF0F3"/>
<path id="Vector_27" d="M29.5966 14.0232C29.5129 14.1404 29.46 14.2769 29.4429 14.4201C29.4227 14.585 29.4227 14.7517 29.4429 14.9166C29.4534 15.03 29.4743 15.1423 29.5053 15.252C29.5295 15.3419 29.5635 15.4289 29.6066 15.5114L30.0679 15.4633C30.0259 15.3749 29.992 15.2828 29.9665 15.1883C29.9413 15.0929 29.9234 14.9957 29.913 14.8975C29.9015 14.8019 29.9038 14.7052 29.9197 14.6102C29.934 14.5313 29.9707 14.4583 30.0255 14.4C30.091 14.3353 30.1708 14.287 30.2584 14.2591C30.3856 14.2179 30.5172 14.1917 30.6505 14.1808C30.7778 14.1657 30.9064 14.1657 31.0337 14.1808C31.1256 14.191 31.214 14.222 31.2922 14.2714C31.3602 14.3169 31.4139 14.3809 31.4471 14.4559C31.4857 14.5461 31.5094 14.642 31.5172 14.7399C31.5271 14.838 31.5293 14.9367 31.5239 15.0351C31.5181 15.1209 31.5058 15.2061 31.4872 15.29L31.9517 15.2419C31.9925 15.0497 32.0001 14.8519 31.974 14.6572C31.96 14.4906 31.9225 14.3268 31.8626 14.1708C31.8083 14.0346 31.7223 13.9135 31.6119 13.8175C31.491 13.7182 31.3481 13.6496 31.1953 13.6173C30.9958 13.5772 30.7911 13.5697 30.5892 13.595C30.3741 13.611 30.1631 13.6619 29.9642 13.7459C29.8202 13.8054 29.6937 13.9009 29.5966 14.0232Z" fill="#EEF0F3"/>
<path id="Vector_28" d="M29.5291 16.019L29.499 16.5624L30.4605 16.615L30.4114 17.5161L30.8771 17.5419L30.9272 16.6418L31.4999 16.6731L31.4464 17.6447L31.9165 17.6704L32.0001 16.1554L29.5291 16.019Z" fill="#EEF0F3"/>
<path id="Vector_29" d="M31.5065 18.7841C31.4239 18.6484 31.3091 18.5354 31.1723 18.4553C30.9973 18.351 30.8059 18.2773 30.6063 18.2373C30.3978 18.183 30.1819 18.1626 29.9669 18.1769C29.8123 18.188 29.6634 18.2392 29.5346 18.3256C29.4162 18.4124 29.3215 18.5277 29.2594 18.6611C29.1854 18.8169 29.1297 18.9809 29.0934 19.1497C29.0596 19.2968 29.0369 19.4463 29.0255 19.5969C29.0149 19.7186 29.0149 19.8409 29.0255 19.9625L30.3456 20.2644L30.5517 19.361L30.1061 19.2604L30.0125 19.6718L29.4912 19.5522C29.491 19.5098 29.4948 19.4675 29.5023 19.4258C29.509 19.3834 29.519 19.3386 29.529 19.2894C29.5509 19.1874 29.5857 19.0886 29.6326 18.9954C29.6707 18.9223 29.7297 18.8624 29.802 18.8232C29.8855 18.7827 29.9778 18.7635 30.0705 18.7673C30.2062 18.7711 30.341 18.7899 30.4726 18.8232C30.6017 18.8493 30.7267 18.8921 30.8447 18.9507C30.9296 18.9917 31.0033 19.0527 31.0597 19.1284C31.109 19.1984 31.1372 19.281 31.1411 19.3666C31.1445 19.4708 31.1336 19.575 31.1088 19.6763C31.0848 19.7822 31.0528 19.8861 31.013 19.9871C30.9754 20.084 30.9284 20.1769 30.8726 20.2644L31.3349 20.3762C31.3604 20.3367 31.3828 20.2952 31.4018 20.2521C31.424 20.2029 31.4452 20.1515 31.4641 20.0956C31.4831 20.0397 31.5042 19.9838 31.5221 19.9223C31.5399 19.8608 31.5566 19.8015 31.57 19.7445C31.6113 19.5741 31.6289 19.3987 31.6223 19.2235C31.6207 19.0696 31.5809 18.9186 31.5065 18.7841Z" fill="#EEF0F3"/>
<path id="Vector_30" d="M25.4005 23.5226C27.3098 21.1611 28.256 18.1608 28.0481 15.1267C27.8402 12.0927 26.4938 9.25062 24.2803 7.17364C22.0669 5.09665 19.1511 3.93926 16.1209 3.93486C13.0907 3.93046 10.1716 5.07938 7.95216 7.14993C5.73273 9.22048 4.37813 12.0586 4.16151 15.0921C3.94489 18.1255 4.88237 21.1285 6.7849 23.4955C8.68743 25.8626 11.4135 27.4176 14.4133 27.8469C17.4132 28.2763 20.4636 27.548 22.9496 25.8091L23.8286 26.6913L26.1915 24.3187L25.4005 23.5226ZM16.1093 27.5254C13.8302 27.5249 11.6024 26.8462 9.70766 25.5751C7.81288 24.304 6.3362 22.4975 5.46434 20.3842C4.59247 18.2708 4.36458 15.9454 4.80948 13.702C5.25438 11.4587 6.35208 9.39808 7.9638 7.78083C9.57551 6.16357 11.6288 5.06227 13.8642 4.61619C16.0995 4.17011 18.4164 4.39928 20.522 5.27472C22.6275 6.15016 24.4272 7.63256 25.6933 9.53446C26.9595 11.4364 27.6353 13.6724 27.6353 15.9597C27.6317 19.026 26.4165 21.9657 24.2561 24.1339C22.0958 26.3022 19.1667 27.5218 16.1115 27.5254H16.1093Z" fill="#EEF0F3"/>
<path id="Vector_31" d="M16.1119 5.22824C13.9966 5.22824 11.9289 5.85776 10.1701 7.0372C8.41136 8.21664 7.04057 9.89303 6.2311 11.8544C5.42163 13.8157 5.20983 15.9739 5.6225 18.056C6.03516 20.1382 7.05375 22.0508 8.54946 23.5519C10.0452 25.053 11.9508 26.0753 14.0254 26.4895C16.1 26.9037 18.2504 26.6911 20.2046 25.8787C22.1589 25.0663 23.8292 23.6905 25.0044 21.9253C26.1795 20.1602 26.8068 18.0849 26.8068 15.962C26.8068 13.1152 25.68 10.3851 23.6743 8.37208C21.6686 6.35912 18.9483 5.22824 16.1119 5.22824ZM6.92097 15.962C6.78997 14.7323 6.94636 13.4889 7.37773 12.3304C7.81185 11.1553 8.49367 10.0881 9.37658 9.20178C10.2595 8.31547 11.3227 7.63094 12.4934 7.19498C13.6476 6.76174 14.8867 6.60514 16.1119 6.73767C14.9319 6.86649 13.7801 7.18473 12.7007 7.68023C10.5677 8.67058 8.85454 10.3891 7.8668 12.5294C7.36982 13.6144 7.05044 14.7727 6.92097 15.9598V15.962ZM12.5235 18.7841C12.0957 19.0927 11.5086 19.2492 10.7789 19.2492C10.0492 19.2492 9.49554 19.105 9.08445 18.8187C8.56308 18.452 8.27677 17.8795 8.23555 17.1159L8.21995 16.824H9.61474L9.64928 17.0611C9.6983 17.3965 9.80747 17.6201 9.97347 17.7465C10.1395 17.8728 10.4091 17.9243 10.7789 17.9243C11.0509 17.9376 11.3219 17.883 11.5677 17.7655C11.747 17.6537 11.7704 17.5542 11.7704 17.4759C11.7704 17.3641 11.7348 17.2053 11.4228 17.0499C11.4072 17.041 11.2424 16.9627 10.4302 16.7145C9.7306 16.4909 9.32397 16.3399 9.15018 16.2404C8.91611 16.1115 8.72211 15.9201 8.5896 15.6875C8.45709 15.4549 8.39124 15.19 8.39931 14.9222C8.39253 14.655 8.45535 14.3907 8.58157 14.1554C8.7078 13.92 8.89304 13.7219 9.11899 13.5804C9.53564 13.2875 10.0492 13.1444 10.6887 13.1444C11.3794 13.1444 11.9286 13.2942 12.323 13.5916C12.7619 13.9181 13.0148 14.4201 13.075 15.0843L13.1017 15.3862H11.7147L11.6657 15.1704C11.6335 14.9569 11.5255 14.7623 11.3616 14.6225C11.2201 14.5107 10.9795 14.4582 10.6441 14.4582C10.4263 14.4448 10.2084 14.4831 10.008 14.57C9.9496 14.5941 9.90034 14.6363 9.86731 14.6903C9.83428 14.7444 9.81918 14.8075 9.82418 14.8707C9.82418 14.9602 9.85092 15.0664 10.047 15.1715C10.3299 15.2943 10.621 15.3971 10.9182 15.479C11.6211 15.697 12.1225 15.8871 12.3664 16.0268C12.9168 16.3623 13.1964 16.8252 13.1964 17.4189C13.2052 17.6845 13.1484 17.9482 13.031 18.1864C12.9136 18.4246 12.7392 18.6299 12.5235 18.7841ZM17.8186 18.7841C17.3897 19.0927 16.8037 19.2492 16.0729 19.2492C15.3599 19.2492 14.7895 19.105 14.3795 18.8187C13.857 18.452 13.5719 17.8795 13.5295 17.1159L13.5139 16.824H14.9087L14.9444 17.06C14.9934 17.3954 15.1014 17.619 15.2674 17.7465C15.4334 17.8739 15.703 17.9243 16.0729 17.9243C16.3448 17.9376 16.6159 17.883 16.8616 17.7655C17.041 17.6537 17.0644 17.5542 17.0644 17.4759C17.0644 17.3641 17.0288 17.2053 16.7179 17.0499C16.7012 17.041 16.5352 16.9627 15.7242 16.7145C15.0246 16.4909 14.6179 16.3399 14.4442 16.2404C14.2101 16.1115 14.0161 15.9201 13.8836 15.6875C13.7511 15.4549 13.6852 15.19 13.6933 14.9222C13.6865 14.655 13.7493 14.3907 13.8755 14.1554C14.0018 13.92 14.187 13.7219 14.413 13.5804C14.8296 13.2875 15.3443 13.1444 15.9838 13.1444C16.6734 13.1444 17.2237 13.2942 17.6181 13.5916C18.057 13.9181 18.3099 14.4201 18.369 15.0843L18.3957 15.3862H17.0087L16.9597 15.1704C16.9278 14.9565 16.8197 14.7615 16.6555 14.6214C16.5141 14.5096 16.2734 14.4582 15.9392 14.4582C15.721 14.445 15.5028 14.4832 15.302 14.57C15.2438 14.5944 15.1947 14.6366 15.1617 14.6906C15.1287 14.7446 15.1135 14.8076 15.1182 14.8707C15.1182 14.9602 15.1449 15.0664 15.341 15.1715C15.6216 15.2952 15.9104 15.399 16.2055 15.4823C16.9084 15.7004 17.4098 15.8904 17.6537 16.0302C18.2108 16.3656 18.4837 16.8285 18.4837 17.4222C18.4929 17.6866 18.4371 17.9492 18.3211 18.1867C18.2051 18.4243 18.0325 18.6294 17.8186 18.7841ZM22.8151 19.1452L22.3305 17.8035H20.4868L20.0022 19.1452H18.4748L20.7218 13.2428H22.0943L24.3414 19.1419L22.8151 19.1452Z" fill="#EEF0F3"/>
<path id="Vector_32" d="M20.9473 16.5289H21.8697L21.4107 15.2408L20.9473 16.5289Z" fill="#EEF0F3"/>
<path id="Vector_33" d="M26.5422 24.6664L24.1748 27.0379L26.8775 29.7414C27.1927 30.0469 27.6148 30.216 28.0529 30.2122C28.4911 30.2083 28.9102 30.032 29.22 29.721C29.5299 29.41 29.7056 28.9894 29.7094 28.5497C29.7132 28.1099 29.5448 27.6863 29.2404 27.3699L26.5422 24.6664ZM28.3358 27.9033C28.1286 27.7296 27.9299 27.5474 27.7398 27.3565C27.5493 27.1665 27.3666 26.9674 27.1939 26.7595C27.0174 26.5508 26.8573 26.3287 26.7148 26.0953C26.9499 26.2369 27.1734 26.3969 27.3833 26.5739C27.5905 26.746 27.7888 26.9294 27.9804 27.1195C28.172 27.3096 28.3525 27.5086 28.5263 27.7166C28.7032 27.927 28.8631 28.1513 29.0042 28.3874C28.7693 28.2437 28.5458 28.0818 28.3358 27.9033Z" fill="#EEF0F3"/>
</g>
</g>
</g>
<defs>
<clipPath id="clip0_37167_19459">
<rect width="32" height="32" fill="white"/>
</clipPath>
</defs>
</svg>
